<?xml version="1.0" encoding="UTF-8"?>
<svg width="128px" height="128px" viewBox="0 0 128 128" version="1.1" xmlns="http://www.w3.org/2000/svg" xmlns:xlink="http://www.w3.org/1999/xlink">
    <!-- Generator: Sketch 58 (84663) - https://sketch.com -->
    <title>Icons</title>
    <desc>Created with Sketch.</desc>
    <g id="Icons" stroke="none" stroke-width="1" fill="none" fill-rule="evenodd">
        <g id="Icons/Chat">
            <path d="M17.5,27.8569251 L25.2974376,18.5 L28,18.5 C29.3807119,18.5 30.5,17.3807119 30.5,16 L30.5,4 C30.5,2.61928813 29.3807119,1.5 28,1.5 L4,1.5 C2.61928813,1.5 1.5,2.61928813 1.5,4 L1.5,16 C1.5,17.3807119 2.61928813,18.5 4,18.5 L17.5,18.5 L17.5,27.8569251 Z" id="Combined-Shape" stroke="#FFFFFF" stroke-width="3"></path>
            <circle id="Oval" fill="#FFFFFF" fill-rule="evenodd" cx="10" cy="10" r="2"></circle>
            <circle id="Oval" fill="#FFFFFF" fill-rule="evenodd" cx="16" cy="10" r="2"></circle>
            <circle id="Oval" fill="#FFFFFF" fill-rule="evenodd" cx="22" cy="10" r="2"></circle>
        </g>
        <g id="Icons/Twitch" transform="translate(32.000000, 0.000000)" fill="#FFFFFF" fill-rule="nonzero">
            <path d="M3.08452679,0 L1,5.55891568 L1,27.7919149 L8.63971344,27.7919149 L8.63971344,31.9630992 L12.8106848,31.9630992 L16.977501,27.7919149 L23.2294832,27.7919149 L31.5671642,19.4572171 L31.5671642,0 L3.08452679,0 Z M5.86169395,2.77769987 L28.7888251,2.77769987 L28.7888251,18.0646913 L23.9244675,22.9293685 L16.2835821,22.9293685 L12.1179379,27.0947996 L12.1179379,22.9293685 L5.86169395,22.9293685 L5.86169395,2.77769987 Z M13.5044758,16.6768216 L16.2835608,16.6768216 L16.2835608,8.33956681 L13.5044758,8.33956681 L13.5044758,16.6768216 Z M21.145894,16.6768216 L23.9244462,16.6768216 L23.9244462,8.33956681 L21.145894,8.33956681 L21.145894,16.6768216 Z" id="Shape"></path>
        </g>
        <g id="Icons/League" transform="translate(64.000000, 0.000000)" fill="#FFFFFF" fill-rule="nonzero">
            <path d="M2.80644,9.75049 C1.655032,11.8373 1,14.2271 1,16.7683 C1,19.3095 1.655032,21.7015 2.80644,23.7883 L2.80644,9.75049 Z" id="Path"></path>
            <path d="M16,2.02222 C14.7829,2.02222 13.602,2.16921 12.4688,2.43647 L12.4688,4.75718 C13.5907,4.44093 14.7738,4.26721 16,4.26721 C23.0218,4.26721 28.7153,9.84627 28.7153,16.7305 C28.7153,19.8307 27.5571,22.6659 25.6464,24.8463 L25.2838,26.118 L24.4814,28.9331 C28.4184,26.2761 31.0023,21.8195 31.0023,16.7705 C31,8.62355 24.2843,2.02222 16,2.02222 Z" id="Path"></path>
            <path d="M12.4688,24.4209 L23.9737,24.4209 L24.2253,24.4209 C26.1723,22.4209 27.3713,19.7126 27.3713,16.7305 C27.3713,10.5746 22.2806,5.58569 16,5.58569 C14.767,5.58569 13.5816,5.78168 12.4688,6.1358 L12.4688,24.4209 Z" id="Path"></path>
            <polygon id="Path" points="11.1088 0 2.55029 0 4.16634 3.29844 4.16634 28.7038 2.55029 32 22.1922 32 23.9737 25.7572 11.1088 25.7572"></polygon>
        </g>
        <g id="Icons/Sync" transform="translate(64.000000, 32.000000)" fill="#FFFFFF" fill-rule="nonzero">
            <path d="M19.2791275,4.70588235 L17.7866221,3.21337788 C17.0515181,2.47827294 17.0515181,1.28643294 17.7866221,0.551328 C18.5217271,-0.183776 19.7135671,-0.183776 20.448672,0.551328 L25.1545544,5.25721035 C25.8896584,5.99231529 25.8896584,7.18415529 25.1545544,7.91926024 L20.448672,12.6251426 C19.7135671,13.3602466 18.5217271,13.3602466 17.7866221,12.6251426 C17.0515181,11.8900376 17.0515181,10.6981976 17.7866221,9.96309271 L19.2791275,8.47058824 L16.2941176,8.47058824 C12.1357384,8.47058824 8.76470588,11.8416207 8.76470588,16 C8.76470588,17.0395944 7.92194729,17.8823529 6.88235294,17.8823529 C5.84275859,17.8823529 5,17.0395944 5,16 C5,9.76243106 10.0565487,4.70588235 16.2941176,4.70588235 L19.2791275,4.70588235 Z M13.3091078,27.2941176 L14.8016132,28.7866221 C15.5367172,29.5217271 15.5367172,30.7135671 14.8016132,31.448672 C14.0665082,32.183776 12.8746682,32.183776 12.1395633,31.448672 L7.43368094,26.7427896 C6.69857694,26.0076847 6.69857694,24.8158447 7.43368094,24.0807398 L12.1395633,19.3748574 C12.8746682,18.6397534 14.0665082,18.6397534 14.8016132,19.3748574 C15.5367172,20.1099624 15.5367172,21.3018024 14.8016132,22.0369073 L13.3091078,23.5294118 L16.2941176,23.5294118 C20.4524969,23.5294118 23.8235294,20.1583793 23.8235294,16 C23.8235294,14.9604056 24.666288,14.1176471 25.7058824,14.1176471 C26.7454767,14.1176471 27.5882353,14.9604056 27.5882353,16 C27.5882353,22.2375689 22.5316866,27.2941176 16.2941176,27.2941176 L13.3091078,27.2941176 Z" id="Shape"></path>
        </g>
        <g id="Icons/Close" transform="translate(96.000000, 32.000000)" stroke="#FFFFFF" stroke-linecap="round" stroke-linejoin="round" stroke-width="8">
            <path d="M28,4 L4,28" id="Path-2"></path>
            <path d="M4,4 L28,28" id="Path-3"></path>
        </g>
        <g id="Icons/Fullscreen" transform="translate(96.000000, 0.000000)" fill="#FFFFFF">
            <path d="M3,0 L11,0 C11.5522847,-1.01453063e-16 12,0.44771525 12,1 L12,3 C12,3.55228475 11.5522847,4 11,4 L4,4 L4,11 C4,11.5522847 3.55228475,12 3,12 L1,12 C0.44771525,12 6.76353751e-17,11.5522847 0,11 L0,1 C-6.76353751e-17,0.44771525 0.44771525,1.01453063e-16 1,0 L3,0 Z" id="Combined-Shape"></path>
            <path d="M3,20 C3.55228475,20 4,20.4477153 4,21 L4,28 L11,28 C11.5522847,28 12,28.4477153 12,29 L12,31 C12,31.5522847 11.5522847,32 11,32 L3,32 L3,32 L1,32 C0.44771525,32 6.76353751e-17,31.5522847 0,31 L0,29 L0,21 C-6.76353751e-17,20.4477153 0.44771525,20 1,20 L3,20 Z" id="Combined-Shape"></path>
            <path d="M21,32 C20.4477153,32 20,31.5522847 20,31 L20,29 C20,28.4477153 20.4477153,28 21,28 L28,28 L28,21 C28,20.4477153 28.4477153,20 29,20 L31,20 C31.5522847,20 32,20.4477153 32,21 L32,29 L32,29 L32,31 C32,31.5128358 31.6139598,31.9355072 31.1166211,31.9932723 L31,32 L31,32 L29,32 L21,32 Z" id="Combined-Shape"></path>
            <path d="M31,0 C31.5522847,-1.01453063e-16 32,0.44771525 32,1 L32,11 C32,11.5522847 31.5522847,12 31,12 L29,12 C28.4477153,12 28,11.5522847 28,11 L28,4 L21,4 C20.4477153,4 20,3.55228475 20,3 L20,1 C20,0.44771525 20.4477153,1.01453063e-16 21,0 L31,0 Z" id="Combined-Shape"></path>
        </g>
        <g id="Icons/Pause" transform="translate(0.000000, 32.000000)" fill="#FFFFFF">
            <rect id="Rectangle" x="5" y="1" width="8" height="30" rx="4"></rect>
            <rect id="Rectangle" x="19" y="1" width="8" height="30" rx="4"></rect>
        </g>
        <g id="Icons/Loader" transform="translate(0.000000, 64.000000)" fill="#FFFFFF">
            <path d="M16,32 C7.163444,32 0,24.836556 0,16 C0,7.163444 7.163444,0 16,0 L16,2 L16,2 C8.2680135,2 2,8.2680135 2,16 C2,23.7319865 8.2680135,30 16,30 C23.7319865,30 30,23.7319865 30,16 L32,16 L32,16 C32,24.836556 24.836556,32 16,32 Z" id="Oval-2"></path>
        </g>
        <g id="Icons/Play" transform="translate(32.000000, 32.000000)" fill="#FFFFFF">
            <path d="M7.5547002,1.0364668 L28.7519246,15.1679497 C29.2114532,15.4743022 29.3356271,16.0951715 29.0292747,16.5547002 C28.9560398,16.6645525 28.8617768,16.7588154 28.7519246,16.8320503 L7.5547002,30.9635332 C7.09517151,31.2698857 6.47430216,31.1457118 6.16794971,30.6861831 C6.05843803,30.5219156 6,30.3289079 6,30.1314829 L6,1.86851709 C6,1.31623234 6.44771525,0.868517092 7,0.868517092 C7.19742499,0.868517092 7.39043268,0.926955119 7.5547002,1.0364668 Z" id="Rectangle"></path>
        </g>
    </g>
</svg>