<?xml version="1.0" encoding="UTF-8"?>
<svg width="128px" height="128px" viewBox="0 0 128 128" version="1.1" xmlns="http://www.w3.org/2000/svg" xmlns:xlink="http://www.w3.org/1999/xlink">
    <!-- Generator: Sketch 58 (84663) - https://sketch.com -->
    <title>Icons</title>
    <desc>Created with Sketch.</desc>
    <defs>
        <polygon id="path-1" points="0 0 32 0 32 32 0 32"></polygon>
        <polygon id="path-3" points="0 0.000192 32 0.000192 32 32 0 32"></polygon>
    </defs>
    <g id="Icons" stroke="none" stroke-width="1" fill="none" fill-rule="evenodd">
        <g id="Icons/Chat">
            <path d="M17.5,27.8569251 L25.2974376,18.5 L28,18.5 C29.3807119,18.5 30.5,17.3807119 30.5,16 L30.5,4 C30.5,2.61928813 29.3807119,1.5 28,1.5 L4,1.5 C2.61928813,1.5 1.5,2.61928813 1.5,4 L1.5,16 C1.5,17.3807119 2.61928813,18.5 4,18.5 L17.5,18.5 L17.5,27.8569251 Z" id="Combined-Shape" stroke="#FFFFFF" stroke-width="3"></path>
            <circle id="Oval" fill="#FFFFFF" fill-rule="evenodd" cx="10" cy="10" r="2"></circle>
            <circle id="Oval" fill="#FFFFFF" fill-rule="evenodd" cx="16" cy="10" r="2"></circle>
            <circle id="Oval" fill="#FFFFFF" fill-rule="evenodd" cx="22" cy="10" r="2"></circle>
        </g>
        <g id="Icons/Twitch" transform="translate(32.000000, 0.000000)" fill="#FFFFFF" fill-rule="nonzero">
            <path d="M3.08452679,0 L1,5.55891568 L1,27.7919149 L8.63971344,27.7919149 L8.63971344,31.9630992 L12.8106848,31.9630992 L16.977501,27.7919149 L23.2294832,27.7919149 L31.5671642,19.4572171 L31.5671642,0 L3.08452679,0 Z M5.86169395,2.77769987 L28.7888251,2.77769987 L28.7888251,18.0646913 L23.9244675,22.9293685 L16.2835821,22.9293685 L12.1179379,27.0947996 L12.1179379,22.9293685 L5.86169395,22.9293685 L5.86169395,2.77769987 Z M13.5044758,16.6768216 L16.2835608,16.6768216 L16.2835608,8.33956681 L13.5044758,8.33956681 L13.5044758,16.6768216 Z M21.145894,16.6768216 L23.9244462,16.6768216 L23.9244462,8.33956681 L21.145894,8.33956681 L21.145894,16.6768216 Z" id="Shape"></path>
        </g>
        <g id="Icons/League" transform="translate(64.000000, 0.000000)" fill="#FFFFFF" fill-rule="nonzero">
            <path d="M2.80644,9.75049 C1.655032,11.8373 1,14.2271 1,16.7683 C1,19.3095 1.655032,21.7015 2.80644,23.7883 L2.80644,9.75049 Z" id="Path"></path>
            <path d="M16,2.02222 C14.7829,2.02222 13.602,2.16921 12.4688,2.43647 L12.4688,4.75718 C13.5907,4.44093 14.7738,4.26721 16,4.26721 C23.0218,4.26721 28.7153,9.84627 28.7153,16.7305 C28.7153,19.8307 27.5571,22.6659 25.6464,24.8463 L25.2838,26.118 L24.4814,28.9331 C28.4184,26.2761 31.0023,21.8195 31.0023,16.7705 C31,8.62355 24.2843,2.02222 16,2.02222 Z" id="Path"></path>
            <path d="M12.4688,24.4209 L23.9737,24.4209 L24.2253,24.4209 C26.1723,22.4209 27.3713,19.7126 27.3713,16.7305 C27.3713,10.5746 22.2806,5.58569 16,5.58569 C14.767,5.58569 13.5816,5.78168 12.4688,6.1358 L12.4688,24.4209 Z" id="Path"></path>
            <polygon id="Path" points="11.1088 0 2.55029 0 4.16634 3.29844 4.16634 28.7038 2.55029 32 22.1922 32 23.9737 25.7572 11.1088 25.7572"></polygon>
        </g>
        <g id="Icons/Sync" transform="translate(64.000000, 32.000000)" fill="#FFFFFF" fill-rule="nonzero">
            <path d="M19.2791275,4.70588235 L17.7866221,3.21337788 C17.0515181,2.47827294 17.0515181,1.28643294 17.7866221,0.551328 C18.5217271,-0.183776 19.7135671,-0.183776 20.448672,0.551328 L25.1545544,5.25721035 C25.8896584,5.99231529 25.8896584,7.18415529 25.1545544,7.91926024 L20.448672,12.6251426 C19.7135671,13.3602466 18.5217271,13.3602466 17.7866221,12.6251426 C17.0515181,11.8900376 17.0515181,10.6981976 17.7866221,9.96309271 L19.2791275,8.47058824 L16.2941176,8.47058824 C12.1357384,8.47058824 8.76470588,11.8416207 8.76470588,16 C8.76470588,17.0395944 7.92194729,17.8823529 6.88235294,17.8823529 C5.84275859,17.8823529 5,17.0395944 5,16 C5,9.76243106 10.0565487,4.70588235 16.2941176,4.70588235 L19.2791275,4.70588235 Z M13.3091078,27.2941176 L14.8016132,28.7866221 C15.5367172,29.5217271 15.5367172,30.7135671 14.8016132,31.448672 C14.0665082,32.183776 12.8746682,32.183776 12.1395633,31.448672 L7.43368094,26.7427896 C6.69857694,26.0076847 6.69857694,24.8158447 7.43368094,24.0807398 L12.1395633,19.3748574 C12.8746682,18.6397534 14.0665082,18.6397534 14.8016132,19.3748574 C15.5367172,20.1099624 15.5367172,21.3018024 14.8016132,22.0369073 L13.3091078,23.5294118 L16.2941176,23.5294118 C20.4524969,23.5294118 23.8235294,20.1583793 23.8235294,16 C23.8235294,14.9604056 24.666288,14.1176471 25.7058824,14.1176471 C26.7454767,14.1176471 27.5882353,14.9604056 27.5882353,16 C27.5882353,22.2375689 22.5316866,27.2941176 16.2941176,27.2941176 L13.3091078,27.2941176 Z" id="Shape"></path>
        </g>
        <g id="Icons/Close" transform="translate(96.000000, 32.000000)" stroke="#FFFFFF" stroke-linecap="round" stroke-linejoin="round" stroke-width="8">
            <path d="M28,4 L4,28" id="Path-2"></path>
            <path d="M4,4 L28,28" id="Path-3"></path>
        </g>
        <g id="Icons/Close-Black" transform="translate(96.000000, 64.000000)" stroke="#18181A" stroke-linecap="round" stroke-linejoin="round" stroke-width="8">
            <path d="M28,4 L4,28" id="Path-2"></path>
            <path d="M4,4 L28,28" id="Path-3"></path>
        </g>
        <g id="Icons/Fullscreen" transform="translate(96.000000, 0.000000)" fill="#FFFFFF">
            <path d="M3,0 L11,0 C11.5522847,-1.01453063e-16 12,0.44771525 12,1 L12,3 C12,3.55228475 11.5522847,4 11,4 L4,4 L4,11 C4,11.5522847 3.55228475,12 3,12 L1,12 C0.44771525,12 6.76353751e-17,11.5522847 0,11 L0,1 C-6.76353751e-17,0.44771525 0.44771525,1.01453063e-16 1,0 L3,0 Z" id="Combined-Shape"></path>
            <path d="M3,20 C3.55228475,20 4,20.4477153 4,21 L4,28 L11,28 C11.5522847,28 12,28.4477153 12,29 L12,31 C12,31.5522847 11.5522847,32 11,32 L3,32 L3,32 L1,32 C0.44771525,32 6.76353751e-17,31.5522847 0,31 L0,29 L0,21 C-6.76353751e-17,20.4477153 0.44771525,20 1,20 L3,20 Z" id="Combined-Shape"></path>
            <path d="M21,32 C20.4477153,32 20,31.5522847 20,31 L20,29 C20,28.4477153 20.4477153,28 21,28 L28,28 L28,21 C28,20.4477153 28.4477153,20 29,20 L31,20 C31.5522847,20 32,20.4477153 32,21 L32,29 L32,29 L32,31 C32,31.5128358 31.6139598,31.9355072 31.1166211,31.9932723 L31,32 L31,32 L29,32 L21,32 Z" id="Combined-Shape"></path>
            <path d="M31,0 C31.5522847,-1.01453063e-16 32,0.44771525 32,1 L32,11 C32,11.5522847 31.5522847,12 31,12 L29,12 C28.4477153,12 28,11.5522847 28,11 L28,4 L21,4 C20.4477153,4 20,3.55228475 20,3 L20,1 C20,0.44771525 20.4477153,1.01453063e-16 21,0 L31,0 Z" id="Combined-Shape"></path>
        </g>
        <g id="Icons/Pause" transform="translate(0.000000, 32.000000)" fill="#FFFFFF">
            <rect id="Rectangle" x="5" y="1" width="8" height="30" rx="4"></rect>
            <rect id="Rectangle" x="19" y="1" width="8" height="30" rx="4"></rect>
        </g>
        <g id="Icons/Play" transform="translate(32.000000, 32.000000)" fill="#FFFFFF">
            <path d="M7.5547002,1.0364668 L28.7519246,15.1679497 C29.2114532,15.4743022 29.3356271,16.0951715 29.0292747,16.5547002 C28.9560398,16.6645525 28.8617768,16.7588154 28.7519246,16.8320503 L7.5547002,30.9635332 C7.09517151,31.2698857 6.47430216,31.1457118 6.16794971,30.6861831 C6.05843803,30.5219156 6,30.3289079 6,30.1314829 L6,1.86851709 C6,1.31623234 6.44771525,0.868517092 7,0.868517092 C7.19742499,0.868517092 7.39043268,0.926955119 7.5547002,1.0364668 Z" id="Rectangle"></path>
        </g>
        <g id="Icons/Sound" transform="translate(32.000000, 64.000000)" fill="#FFFFFF">
            <g id="Group" transform="translate(1.000000, 4.000000)">
                <path d="M1.45249231,17.1469169 L6.11710769,17.1469169 L11.6801846,23.0424246 C12.4555692,23.8176862 13.7849231,23.26384 13.7849231,22.1683323 L13.7849231,2.45165538 C13.7849231,1.35614769 12.4555692,0.802301538 11.6801846,1.57756308 L6.17876923,7.30076308 L1.45249231,7.30076308 C0.775569231,7.30076308 0.221723077,7.85460923 0.221723077,8.53153231 L0.221723077,15.9161477 C0.221723077,16.6055015 0.775569231,17.1469169 1.45249231,17.1469169 Z" id="Path" fill-rule="nonzero"></path>
                <path d="M25.0985231,0.994055385 C24.6177846,0.513193846 23.8389538,0.513193846 23.3582154,0.994055385 C22.8773538,1.47479385 22.8773538,2.25362462 23.3582154,2.73436308 C25.9104615,5.28722462 27.3167385,8.68747077 27.3167385,12.3076554 C27.3167385,15.9290708 25.9110769,19.3280862 23.3582154,21.8810708 C22.8773538,22.3618092 22.8773538,23.14064 23.3582154,23.6213785 C23.8389538,24.1021169 24.6177846,24.10224 25.0985231,23.6213785 C28.1166154,20.60464 29.7782769,16.5865477 29.7782769,12.3076554 C29.7782769,8.02888615 28.116,4.01202462 25.0985231,0.994055385 Z" id="Path" fill-rule="nonzero"></path>
                <path d="M21.6171692,4.47479385 C21.1364308,3.99405538 20.3576,3.99405538 19.8768615,4.47479385 C19.396,4.95553231 19.396,5.73436308 19.8768615,6.21510154 C23.2361231,9.57448615 23.2361231,15.0408246 19.8768615,18.4002092 C19.396,18.8810708 19.396,19.6599015 19.8768615,20.14064 C20.3576,20.6213785 21.1364308,20.6213785 21.6171692,20.14064 C25.9363077,15.8221169 25.9363077,8.79331692 21.6171692,4.47479385 Z" id="Path" fill-rule="nonzero"></path>
                <path d="M16.3953846,16.6599015 C16.8762462,17.14064 17.6550769,17.14064 18.1358154,16.6599015 C19.2980308,15.4975631 19.9381538,13.9519631 19.9381538,12.3076554 C19.9381538,10.6634708 19.2980308,9.11897846 18.1358154,7.95676308 C17.6550769,7.47602462 16.8750154,7.47602462 16.3953846,7.95676308 C15.9146462,8.43750154 15.9146462,9.21633231 16.3953846,9.69719385 C17.0926154,10.3943015 17.4766154,11.3209477 17.4766154,12.3076554 C17.4766154,13.2944862 17.0926154,14.2223631 16.3953846,14.9194708 C15.9146462,15.4002092 15.9146462,16.1791631 16.3953846,16.6599015 Z" id="Path" fill-rule="nonzero"></path>
            </g>
        </g>
        <g id="Icons/Github" transform="translate(64.000000, 64.000000)">
            <g id="Group-3">
                <mask id="mask-2" fill="white">
                    <use xlink:href="#path-1"></use>
                </mask>
                <g id="Clip-2"></g>
                <path d="M15.9990178,0 C7.16414979,0 0,7.3446728 0,16.406426 C0,23.6534115 4.58391651,29.801667 10.9426642,31.9719357 C11.7431553,32.1219915 12.034868,31.6154276 12.034868,31.1803667 C12.034868,30.7916318 12.0211172,29.7593694 12.0132597,28.3907406 C7.56292204,29.3817125 6.62394107,26.1912664 6.62394107,26.1912664 C5.8961326,24.2959319 4.84714549,23.7923893 4.84714549,23.7923893 C3.39447514,22.7742261 4.95715163,22.7943678 4.95715163,22.7943678 C6.56304481,22.9111897 7.40773481,24.4852639 7.40773481,24.4852639 C8.83486802,26.9918991 11.1518723,26.2678048 12.0643339,25.8488574 C12.2096992,24.7883966 12.6222222,24.0653094 13.0799263,23.6554257 C9.52731737,23.2415136 5.79201964,21.8336084 5.79201964,15.5473822 C5.79201964,13.7567847 6.41571516,12.2924827 7.43916513,11.1454126 C7.27415592,10.7304934 6.72510743,9.06276025 7.59533456,6.80386802 C7.59533456,6.80386802 8.93898097,6.36276467 11.9955801,8.4857004 C13.2714549,8.12113554 14.6406384,7.93986019 16.0009822,7.93281059 C17.3593616,7.93986019 18.7285451,8.12113554 20.0063843,8.4857004 C23.061019,6.36276467 24.4017188,6.80386802 24.4017188,6.80386802 C25.2748926,9.06276025 24.7258441,10.7304934 24.5608349,11.1454126 C25.5862492,12.2924827 26.206016,13.7567847 26.206016,15.5473822 C26.206016,21.8497218 22.464825,23.2364782 18.9004297,23.6423336 C19.4750153,24.1488974 19.9867403,25.1499402 19.9867403,26.6807098 C19.9867403,28.8731344 19.9670964,30.6425832 19.9670964,31.1803667 C19.9670964,31.6194559 20.2548803,32.1300481 21.0671578,31.9699216 C27.4190301,29.7956245 32,23.6513973 32,16.406426 C32,7.3446728 24.8358502,0 15.9990178,0" id="Fill-1" fill="#FFFFFF" mask="url(#mask-2)"></path>
            </g>
        </g>
        <g id="Icons/Viewers" transform="translate(0.000000, 64.000000)" stroke="#E46155" stroke-width="4">
            <circle id="Oval" cx="16" cy="11" r="7"></circle>
            <path d="M16,30 C16,28 16,26.3333333 16,25 C18,20 26,25 26,17" id="Path-4" stroke-linejoin="round" transform="translate(21.000000, 23.500000) scale(-1, 1) translate(-21.000000, -23.500000) "></path>
            <path d="M6,30 C6,28 6,26.3333333 6,25 C8,20 16,25 16,17" id="Path-4" stroke-linejoin="round"></path>
        </g>
        <g id="Icons/Settings" transform="translate(0.000000, 96.000000)">
            <g id="Group-3">
                <mask id="mask-4" fill="white">
                    <use xlink:href="#path-3"></use>
                </mask>
                <g id="Clip-2"></g>
                <path d="M16,21.727872 C12.84,21.726272 10.28,19.163072 10.2815993,16.003072 C10.28352,12.843072 12.8464,10.283072 16.0064,10.2846713 C19.16256,10.286592 21.72128,12.843712 21.7248036,16.000192 C21.72832,19.159872 19.1696,21.724352 16.0096,21.727872 L16,21.727872 Z M32,19.200192 L32,12.800192 L27.6768,12.518272 C27.43456,11.711872 27.11328,10.931712 26.7168,10.188672 L29.5712,6.934592 L25.0496,2.425472 L21.7984,5.286592 C21.05696,4.887552 20.27616,4.565632 19.4688,4.326592 L19.2,0.000192 L12.8,0.000192 L12.5248,4.323072 C11.71712,4.561152 10.93632,4.883072 10.1952,5.283072 L6.944,2.425472 L2.4288,6.943872 L5.2832,10.198272 C4.88672,10.941312 4.56512,11.721472 4.3232,12.527872 L0,12.800192 L0,19.200192 L4.3232,19.475072 C4.56416,20.281792 4.88576,21.062592 5.2832,21.804672 L2.4352,25.059072 L6.9504,29.574592 L10.1984,26.713472 C10.93984,27.112512 11.72064,27.434432 12.528,27.673472 L12.8,32.000192 L19.2,32.000192 L19.4816,27.676992 C20.2896,27.439872 21.07072,27.117952 21.8112,26.716992 L25.0592,29.577472 L29.5776,25.065792 L26.7104,21.807872 C27.10912,21.066432 27.43072,20.285632 27.6704,19.478272 L32,19.200192 Z" id="Fill-1" fill="#FFFFFF" mask="url(#mask-4)"></path>
            </g>
        </g>
    </g>
</svg>